<svg width="128" height="128" viewBox="0 0 128 128" fill="none" xmlns="http://www.w3.org/2000/svg">
<path d="M22.9268 80.295V83.628C50.3314 107.464 77.7361 107.464 105.141 83.628V80.295H22.9268Z" fill="white"/>
<path d="M22.927 80.295L38.279 81.709C39.087 81.7763 39.592 82.2477 39.794 83.123L40.198 89.89L53.53 90.9L54.338 84.739C54.4727 83.9983 54.9777 83.4933 55.853 83.224H72.215C73.0903 83.4933 73.5953 83.9983 73.73 84.739L74.538 90.9L87.87 89.89L88.274 83.123C88.476 82.2477 88.981 81.7763 89.789 81.709L105.141 80.295V55.449C107.161 52.823 109.046 50.096 110.797 47.268C108.44 43.2953 105.646 39.6593 102.414 36.36C99.5187 37.7067 96.758 39.289 94.132 41.107C91.4387 38.6157 88.476 36.461 85.244 34.643C85.7153 31.209 85.9847 27.775 86.052 24.341C82.0793 22.4557 77.9383 21.0417 73.629 20.099C71.8783 22.9943 70.3297 25.9907 68.983 29.088C65.6837 28.6167 62.3843 28.6167 59.085 29.088C57.7383 25.9907 56.1897 22.9943 54.439 20.099C50.1297 21.0417 45.9887 22.4557 42.016 24.341C42.0833 27.775 42.3527 31.209 42.824 34.643C39.592 36.461 36.6293 38.6157 33.936 41.107C31.31 39.289 28.5493 37.7067 25.654 36.36C22.422 39.6593 19.6277 43.2953 17.271 47.268C19.0217 50.096 20.907 52.823 22.927 55.449V80.295ZM22.927 83.628V87.567C22.927 115.443 105.04 115.443 105.141 87.567V83.628L91.607 84.84L91.102 91.809C90.9673 92.4823 90.496 92.92 89.688 93.122L73.326 94.233C72.518 94.233 71.9793 93.8627 71.71 93.122L70.7 86.557H57.368L56.358 93.122C56.0887 93.8627 55.55 94.233 54.742 94.233L38.38 93.122C37.572 92.92 37.1007 92.4823 36.966 91.809L36.461 84.84L22.927 83.628Z" fill="#478CBF"/>
<path d="M61.105 72.922C61.105 76.356 66.963 76.356 66.963 72.922V64.236C66.963 60.802 61.105 60.802 61.105 64.236V72.922Z" fill="white"/>
<path d="M85.547 74.538C90.5673 74.538 94.637 70.4683 94.637 65.448C94.637 60.4278 90.5673 56.358 85.547 56.358C80.5268 56.358 76.457 60.4278 76.457 65.448C76.457 70.4683 80.5268 74.538 85.547 74.538Z" fill="white"/>
<path d="M42.5212 74.538C47.5414 74.538 51.6112 70.4683 51.6112 65.448C51.6112 60.4278 47.5414 56.358 42.5212 56.358C37.5009 56.358 33.4312 60.4278 33.4312 65.448C33.4312 70.4683 37.5009 74.538 42.5212 74.538Z" fill="white"/>
<path d="M43.329 72.114C46.6759 72.114 49.389 69.4009 49.389 66.054C49.389 62.7072 46.6759 59.994 43.329 59.994C39.9822 59.994 37.269 62.7072 37.269 66.054C37.269 69.4009 39.9822 72.114 43.329 72.114Z" fill="#414042"/>
<path d="M84.7392 72.114C88.086 72.114 90.7992 69.4009 90.7992 66.054C90.7992 62.7072 88.086 59.994 84.7392 59.994C81.3924 59.994 78.6792 62.7072 78.6792 66.054C78.6792 69.4009 81.3924 72.114 84.7392 72.114Z" fill="#414042"/>
</svg>
